<?xml version="1.0" encoding="UTF-8" standalone="no"?>
<!-- Created with Inkscape (http://www.inkscape.org/) -->

<svg
   width="109.17621mm"
   height="95.272102mm"
   viewBox="0 0 109.17621 95.272102"
   version="1.1"
   id="svg5"
   inkscape:version="1.1.2 (1:1.1+202202050950+0a00cf5339)"
   sodipodi:docname="logo.svg"
   xmlns:inkscape="http://www.inkscape.org/namespaces/inkscape"
   xmlns:sodipodi="http://sodipodi.sourceforge.net/DTD/sodipodi-0.dtd"
   xmlns="http://www.w3.org/2000/svg"
   xmlns:svg="http://www.w3.org/2000/svg">
  <sodipodi:namedview
     id="namedview7"
     pagecolor="#f3f3f3"
     bordercolor="#d7d7d7"
     borderopacity="1"
     inkscape:pageshadow="0"
     inkscape:pageopacity="0"
     inkscape:pagecheckerboard="0"
     inkscape:document-units="mm"
     showgrid="false"
     borderlayer="true"
     inkscape:zoom="0.73851712"
     inkscape:cx="125.25099"
     inkscape:cy="276.90624"
     inkscape:window-width="2560"
     inkscape:window-height="1016"
     inkscape:window-x="0"
     inkscape:window-y="0"
     inkscape:window-maximized="1"
     inkscape:current-layer="layer1"
     fit-margin-top="0"
     fit-margin-left="0"
     fit-margin-right="0"
     fit-margin-bottom="0" />
  <defs
     id="defs2" />
  <g
     inkscape:label="Layer 1"
     inkscape:groupmode="layer"
     id="layer1"
     transform="translate(-47.237824,-18.151018)">
    <g
       aria-label="樹"
       id="text2384"
       style="font-size:109.395px;line-height:1.25;font-family:'Yuji Mai';-inkscape-font-specification:'Yuji Mai';letter-spacing:0px;word-spacing:0px;fill:#ffffff;stroke-width:2.73486">
      <path
         d="m 156.41403,58.397437 q -0.10939,0.546975 -0.43758,0.87516 -0.21879,0.328185 -0.21879,1.09395 -4.3758,0.43758 -7.87644,0.328185 -3.39124,-0.109395 -6.89188,0.43758 -0.21879,7.985834 0,16.956224 0,2.1879 0.21879,4.485195 0.21879,2.297295 0.32818,4.703985 0.32819,3.06306 0.54698,6.34491 0.21879,3.172455 0.10939,6.12612 -0.10939,4.047614 -1.09395,7.548254 -0.87516,3.61004 -3.28185,6.12612 -3.06306,-0.32818 -5.36035,-1.64092 -2.2973,-1.31274 -4.26641,-3.06306 -2.0785,-1.96911 -3.93822,-4.26641 -1.85971,-2.40669 -3.71943,-4.3758 -0.43758,0.1094 -0.32818,0.65637 0.10939,0.43758 -0.32819,0.43758 -1.31274,0 -2.62548,0 -1.31274,0 -2.62548,0 -6.12612,0 -11.92405,0.54698 -5.688542,0.54697 -9.298577,3.61003 -4.59459,-0.76576 -7.87644,-3.28185 -0.43758,-0.32818 -0.984555,-0.76576 -0.43758,-0.54698 -0.87516,-1.09395 -0.43758,-0.546979 -0.87516,-0.984559 -0.43758,-0.43758 -0.65637,-0.328185 0,4.485194 -0.43758,7.548254 -0.328185,3.17246 -2.734875,5.36036 -3.610034,-0.87516 -6.454304,-2.62548 -2.84427,-1.64093 -5.03217,-4.04762 -2.078505,-2.1879 -3.71943,-4.70398 -1.640925,-2.516089 -3.172455,-5.250964 -0.21879,-0.546975 -0.109395,-0.765765 0.21879,-0.21879 0.43758,-0.328185 0.328185,-0.21879 0.328185,-0.43758 -0.109395,-0.546975 -0.43758,-0.87516 -0.328185,-0.43758 -0.65637,-0.65637 -0.328185,-0.43758 -0.546975,-0.765765 -0.21879,-0.328185 -0.109395,-0.765765 3.28185,2.40669 6.34491,5.03217 3.06306,2.516085 7.110675,4.047615 1.203345,-1.75032 1.422135,-4.266405 0.21879,-2.62548 0.328185,-5.360355 0,-0.546975 0,-0.984555 0,-0.546975 0,-1.09395 0.109395,-2.953665 0,-5.579145 0,-2.62548 -0.109395,-5.360355 -0.109395,-1.53153 -0.21879,-3.06306 0,-1.640925 0,-3.391245 -4.3758,3.06306 -7.548255,7.329465 -3.06306,4.266405 -6.235515,8.53281 -1.31274,0.328185 -2.297295,1.422135 -0.87516,1.09395 -1.859715,2.40669 -0.87516,1.203345 -2.40669,2.1879 -1.75032,1.09395 -3.71943,0.109395 -1.859715,-0.984555 -3.06306,-2.297295 1.203345,-0.984555 3.391245,-3.50064 2.297295,-2.516085 3.93822,-4.485195 1.203345,-1.422135 2.516085,-3.28185 1.31274,-1.96911 2.734875,-3.828825 1.422135,-1.859715 2.62548,-3.828825 1.31274,-1.96911 2.40669,-3.391245 0.43758,-0.546975 0.87516,-0.656369 0.546975,-0.109395 0.87516,-0.546975 0.87516,-1.31274 1.422135,-2.953665 0.546975,-1.75032 1.31274,-3.06306 0.21879,-0.43758 0.546975,-0.65637 0.328185,-0.328185 0.65637,-0.546975 0.546975,-0.546975 0.87516,-0.984555 0.43758,-0.546975 0.43758,-1.53153 -1.53153,-0.546975 -2.953665,0.109395 -1.422135,0.546975 -2.734875,1.31274 -1.09395,0.65637 -2.1879,1.203345 -1.09395,0.43758 -2.297295,0.328185 -0.765765,-0.109395 -1.96911,-0.984555 -1.09395,-0.984555 -2.078505,-2.1879 -0.984555,-1.203345 -1.31274,-2.078505 -0.43758,-1.203345 -2.078505,-2.84427 -1.640925,-1.75032 -1.75032,-3.610035 0.43758,0 0.87516,0 0.546975,0 0.984555,0 2.1879,0 4.047615,0.328185 1.859715,0.21879 3.610035,1.53153 2.297295,0 4.047615,-0.328185 1.859715,-0.328185 3.71943,-0.65637 0.984555,-0.328185 1.96911,-0.546975 1.09395,-0.21879 2.1879,-0.328185 0,-0.43758 0,-0.87516 0.109395,-0.546975 0.109395,-1.09395 0.328185,-4.047615 0.43758,-8.642205 0.109395,-4.594589 -1.203345,-8.642204 -0.984555,-2.84427 -2.734875,-5.25096 -1.640925,-2.516085 -1.859715,-5.360355 4.485195,-0.21879 7.329465,1.422135 2.844269,1.53153 4.813379,4.485195 1.96911,2.84427 3.71943,6.5637 -1.422135,3.172455 -1.75032,6.454304 -0.21879,3.172455 -0.328185,7.87644 1.53153,0.328185 3.391245,0.984555 1.96911,0.546975 3.610035,1.640925 1.640925,1.09395 2.1879,3.06306 -0.984555,1.75032 -2.953665,2.1879 -1.859715,0.43758 -3.828825,0.65637 -1.859715,0.109395 -3.172455,1.31274 -0.328185,2.40669 0.109395,4.3758 0.43758,1.96911 1.31274,3.50064 0.984555,1.75032 2.1879,3.28185 1.31274,1.531529 2.40669,3.172454 0.546975,0.765765 0.87516,1.859715 0.328185,0.984555 0.87516,1.203345 0.765765,-1.96911 0.109395,-3.172455 -0.546975,-1.203345 -1.422135,-2.187899 -0.65637,-0.87516 -1.203345,-1.640925 -0.546975,-0.87516 -0.65637,-2.078505 2.62548,-1.203345 5.797935,-1.53153 3.172455,-0.43758 6.454305,-0.546975 3.391242,-0.21879 6.563702,-0.765765 3.17245,-0.546975 5.57914,-2.078505 5.46975,0.328185 8.64221,2.1879 3.28185,1.75032 6.12612,5.03217 -0.43758,1.31274 -1.53153,1.53153 -0.98456,0.109395 -2.07851,0.109395 -0.98455,0 -1.85971,0.218789 -0.87516,0.109395 -1.53153,0.765765 0,2.297295 -0.21879,4.266405 -0.1094,1.96911 -0.43758,3.93822 -0.1094,0.984555 -0.21879,2.078505 -0.1094,1.09395 -0.21879,2.1879 -0.32819,0.109395 -0.65637,0.43758 -0.32819,0.109395 -0.65637,0.328185 -0.21879,0.109395 -0.76577,0 0.21879,0.546975 0.43758,0.984555 0.32819,0.43758 0.54698,0.765765 0.54697,0.765765 0.87516,1.53153 0.32818,0.765765 -0.1094,2.078505 -1.42213,0.65637 -2.62548,2.297295 -1.20334,1.640925 -1.96911,3.28185 -0.76576,1.53153 -1.09395,2.297295 0.76577,0.43758 1.53153,0.87516 0.76577,0.43758 1.53153,0.87516 1.75032,1.09395 3.17246,1.859715 1.42213,0.65637 1.96911,0.546975 -0.32819,-0.87516 -0.87516,-1.422135 -0.43758,-0.546975 -0.87516,-0.984555 -0.76577,-0.65637 -0.65637,-0.984555 0.43758,0.109395 1.09395,0.43758 0.76576,0.328185 1.75032,0.765765 1.85971,0.984555 4.15701,1.96911 2.40669,0.984555 4.48519,1.531534 2.07851,0.54697 3.17246,-0.1094 0.76576,-0.437579 1.31274,-1.969109 0.54697,-1.53153 0.76576,-3.391245 0.32819,-1.96911 0.43758,-3.391245 0.43758,-5.141565 0.21879,-9.736155 -0.10939,-4.59459 -0.43758,-9.517365 -0.10939,-2.297295 -0.21879,-4.703985 -0.10939,-2.516084 -0.21879,-5.141564 -2.73487,0.546975 -5.68854,0.43758 -2.95366,-0.21879 -5.36035,-1.31274 -2.2973,-1.203345 -3.06306,-3.71943 3.39124,-1.203345 6.67309,-1.31274 3.39125,-0.109395 7.43886,-0.546975 -0.21879,-4.047615 -0.32818,-9.079785 -0.1094,-5.03217 -0.43758,-10.173735 -0.21879,-5.250959 -1.09395,-9.845549 -1.09395,-1.75032 -2.40669,-3.93822 -1.20335,-2.297295 -1.42214,-4.047615 0.32819,-0.765765 1.20335,-0.43758 0.87516,0.328185 1.75032,0.984555 0.98455,0.546975 1.31274,0.984555 4.04761,0.328185 6.34491,2.516085 2.29729,2.078505 4.92277,3.93822 0.65637,1.53153 0.54698,2.84427 -0.1094,1.31274 -0.87516,2.84427 -1.20335,2.297295 -1.64093,6.344909 -0.43758,4.047615 -0.54697,8.423415 -0.1094,4.3758 -0.32819,7.87644 1.31274,0.65637 2.62548,0.328185 1.31274,-0.43758 2.40669,-0.984555 0.65637,-0.328185 1.20335,-0.546975 0.65637,-0.21879 1.20334,-0.328185 2.1879,-0.21879 3.39125,0.65637 1.20334,0.765765 2.1879,1.859715 0.54697,0.65637 1.20334,1.31274 0.65637,0.546975 1.53153,1.09395 z m -35.11579,-3.391245 q -0.98456,1.31274 -2.07851,1.640925 -0.98455,0.21879 -2.84427,0.21879 -0.43758,0 -0.87516,0.109395 -0.43758,0 -0.98455,0 -4.15701,0.21879 -9.07979,1.09395 -4.92277,0.87516 -8.860992,1.09395 -2.516085,0.109395 -4.922775,-1.09395 -2.40669,-1.31274 -4.703985,-2.734875 -0.65637,-0.43758 -0.984555,-0.65637 3.50064,-1.422135 7.548255,-1.422135 4.047615,-0.109395 7.657652,-0.87516 0,-0.765765 -0.1094,-1.31274 0,-0.65637 -0.10939,-1.31274 -0.1094,-0.87516 -0.21879,-1.75032 0,-0.984555 0.10939,-2.078505 -1.969107,-0.109395 -4.375797,-0.984555 -2.40669,-0.87516 -4.3758,-2.1879 -1.96911,-1.31274 -2.953665,-2.516085 1.31274,-0.984555 3.172455,-0.984555 1.96911,0 4.047615,0 2.1879,-0.109395 4.047612,-0.87516 0.1094,-2.1879 0.1094,-5.141564 0,-2.953665 -0.43758,-5.797935 -1.750322,-1.203345 -2.953667,-3.172455 -1.09395,-1.96911 -1.96911,-4.047615 1.203345,-0.109395 2.297295,-0.328185 1.203345,-0.328185 1.96911,-0.765765 2.406692,0.87516 4.485192,1.859715 2.07851,0.87516 3.61004,2.62548 0.43758,0.43758 0.54697,0.87516 0.1094,0.328185 0.87516,0.65637 -0.43758,1.75032 -0.54697,5.25096 -0.1094,3.391245 -0.54698,6.126119 0.21879,0.43758 0.65637,0.328185 0.43758,-0.21879 0.87516,-0.43758 0.98456,-0.328185 1.31274,-0.328185 1.09395,1.53153 2.95367,2.1879 1.96911,0.65637 3.61003,1.640925 1.64093,0.87516 1.85972,3.391245 -2.62548,0.109395 -5.79794,0.328185 -3.17245,0.21879 -5.79793,0.765765 0,2.078505 -0.43758,4.047615 -0.43758,1.859715 -0.65637,2.84427 0.98455,0.65637 1.85971,0.43758 0.98456,-0.328185 1.75032,-0.765765 0.54698,-0.328185 0.98456,-0.546975 0.54697,-0.21879 1.09395,-0.328185 2.51608,-0.21879 4.92277,1.53153 2.40669,1.640925 4.26641,3.391245 z M 94.496463,96.685686 q -0.984555,-1.75032 -1.859715,-4.485195 -0.765765,-2.84427 -1.75032,-5.68854 -0.87516,-2.84427 -2.40669,-4.59459 0.21879,-0.21879 0.546975,-0.109395 0.43758,0.109395 0.765765,0.328185 0.984555,0.43758 1.09395,0.109395 -0.87516,-0.87516 -0.984555,-2.078505 0,-1.203345 0.21879,-2.516085 0.109395,-1.203345 0,-2.40669 0,-1.203345 -0.65637,-2.078505 -0.87516,0.765765 -2.516085,0.43758 -1.53153,-0.43758 -3.28185,-1.31274 -1.640925,-0.87516 -2.953665,-1.75032 -0.21879,2.516085 -0.109395,5.46975 0.21879,2.84427 0.546975,5.90733 0.328185,3.28185 0.546975,6.5637 0.21879,3.28185 0,6.235515 1.75032,1.53153 4.266405,1.75032 2.62548,0.21879 5.25096,0.21879 0.87516,0 1.640925,0 0.87516,0 1.640925,0 z M 109.92116,64.523557 q -3.39125,0.43758 -6.78249,0.765765 -3.281852,0.21879 -5.907332,1.422135 -0.328185,1.531529 -0.43758,3.172454 0,1.640925 0.109395,3.28185 0,1.53153 0,2.953665 0,1.31274 -0.328185,2.40669 3.172455,-0.21879 6.126122,-0.546975 3.06306,-0.43758 5.90733,-0.984555 1.09395,-2.297295 1.20334,-5.579145 0.21879,-3.28185 0.1094,-6.891884 z m -0.98456,17.721989 q -0.65637,0 -1.42213,0.109395 -0.65637,0 -1.42214,0 -3.17245,0.109395 -6.344907,0.546975 -3.06306,0.43758 -3.93822,2.40669 2.953665,1.09395 3.93822,4.3758 0.984557,3.172455 1.750317,6.5637 1.31274,0.109395 2.1879,-0.109395 0.98456,-0.21879 1.75032,-0.65637 0.21879,-2.1879 0.98456,-4.15701 0.87516,-1.96911 1.64092,-4.047615 0.76577,-2.1879 0.87516,-5.03217 z m 21.55082,3.828825 q -2.51609,-0.21879 -4.26641,-1.203345 -1.75032,-0.984555 -2.95366,-2.62548 -1.64093,-2.1879 -2.51609,-5.25096 -0.87516,-3.172455 -1.64092,-6.454305 2.84427,0.87516 5.46975,2.516085 2.62548,1.640925 4.15701,4.15701 1.09395,1.75032 1.53153,3.93822 0.54697,2.1879 0.21879,4.922775 z"
         id="path8" />
    </g>
  </g>
</svg>
